<svg id="Capa_1" enable-background="new 0 0 510 510" height="512" viewBox="0 0 510 510" width="512" xmlns="http://www.w3.org/2000/svg"><g><g><path d="m510 150c0-10.1 0-139.9 0-150-10.1 0-139.9 0-150 0v150z" fill="#4bb9ec"/><path d="m390 120h90c0-10.9 0-79 0-90-10.9 0-79 0-90 0z" fill="#d6e8fd"/><path d="m360 510h150c0-10.1 0-139.9 0-150-10.1 0-139.9 0-150 0z" fill="#4bb9ec"/><path d="m390 480h90c0-10.9 0-79 0-90-10.9 0-79 0-90 0z" fill="#d6e8fd"/><path d="m0 360h150v150h-150z" fill="#76e2f8"/><path d="m30 390h90v90h-90z" fill="#edf5ff"/><g fill="#76e2f8"><path d="m60 420h30v30h-30z"/><path d="m180 480h75v30h-75z"/><path d="m180 420h45v30h-45z"/><path d="m90 300h30v30h-30z"/><path d="m60 330h-60v-90h30v60h30z"/></g><path d="m480 300c-10.5 0-19.5 0-30 0v30h60c0-10.9 0-79 0-90-10.5 0-19.5 0-30 0z" fill="#4bb9ec"/><path d="m360 330h60c0-10.5 0-19.5 0-30-7.3 0-52.7 0-60 0z" fill="#4bb9ec"/><path d="m330 300c-20.2 0-63.2 0-75 0v30h75c0-10.5 0-19.5 0-30z" fill="#4bb9ec"/><path d="m330 360c-10.5 0-19.5 0-30 0v60c-15 0-30 0-45 0v30h75c0-10.9 0-79 0-90z" fill="#4bb9ec"/><path d="m255 390h-75v-60h-30v-30h60v60h45z" fill="#76e2f8"/><path d="m360 210h30c0-10.5 0-19.5 0-30h-30z" fill="#4bb9ec"/><path d="m360 270h30c0-10.5 0-19.5 0-30h-30z" fill="#4bb9ec"/><path d="m420 270h30c0-7.3 0-52.7 0-60h60c0-10.5 0-19.5 0-30-10.9 0-79 0-90 0z" fill="#4bb9ec"/><path d="m300 270h30c0-10.1 0-139.9 0-150-22.9 0-50.8 0-75 0v30h45z" fill="#4bb9ec"/><path d="m150 240c0-10.5 0-19.5 0-30-10.5 0-19.5 0-30 0v60h135c0-10.5 0-19.5 0-30-28.3 0-88.5 0-105 0z" fill="#76e2f8"/><path d="m90 270h-30v-60h-60v-30h90z" fill="#76e2f8"/><path d="m120 120h30v60h-30z" fill="#76e2f8"/><path d="m180 180v30h75c0-10.5 0-19.5 0-30-20.2 0-63.2 0-75 0z" fill="#76e2f8"/><path d="m180 60v90h30c0-7.3 0-52.7 0-60h45c0-10.5 0-19.5 0-30-20.2 0-63.2 0-75 0z" fill="#76e2f8"/><path d="m330 0c-20.2 0-63.2 0-75 0v30h75c0-10.5 0-19.5 0-30z" fill="#4bb9ec"/><path d="m30 90h-30v-90h90v30h-60z" fill="#76e2f8"/><path d="m180 0h45v30h-45z" fill="#76e2f8"/><path d="m285 480h45v30h-45z" fill="#4bb9ec"/><path d="m285 60h45v30h-45z" fill="#4bb9ec"/><path d="m150 90h-90v-30h60v-60h30z" fill="#76e2f8"/><path d="m0 120h90v30h-90z" fill="#76e2f8"/></g><g fill="#4bb9ec"><path d="m420 420h30v30h-30z"/><path d="m420 60h30v30h-30z"/></g></g></svg>